<?xml version="1.0" encoding="utf-8"?>
<!-- Generator: Adobe Illustrator 25.0.0, SVG Export Plug-In . SVG Version: 6.00 Build 0)  -->
<svg version="1.1" id="Logo" xmlns="http://www.w3.org/2000/svg" xmlns:xlink="http://www.w3.org/1999/xlink" x="0px" y="0px"
	 viewBox="0 0 201.7 201.5" style="enable-background:new 0 0 201.7 201.5;" xml:space="preserve">
<style type="text/css">
	.st0{fill:#FFFFFF;}
</style>
<g>
	<polygon class="st0" points="84.7,111.2 100.9,111.2 100.9,111.2 100.9,111.2 117.1,111.2 100.9,72.2 	"/>
	<path class="st0" d="M100.9,10.8L100.9,10.8L100.9,10.8L12.1,42.5l13.5,117.4l75.2,41.7l0,0l0,0l75.2-41.7l13.4-117.4L100.9,10.8z
		 M156.3,156.3h-20.7l0,0l-11.2-27.8h-23.6l0,0l0,0H77.3l-11.2,27.8l0,0H45.5l0,0l55.4-124.4l0,0l0,0l0,0l0,0L156.3,156.3
		L156.3,156.3z"/>
</g>
</svg>
