<?xml version="1.0" encoding="utf-8"?>
<!-- Generator: Adobe Illustrator 25.0.0, SVG Export Plug-In . SVG Version: 6.00 Build 0)  -->
<svg version="1.1" id="Logo" xmlns="http://www.w3.org/2000/svg" xmlns:xlink="http://www.w3.org/1999/xlink" x="0px" y="0px"
	 viewBox="0 0 201.7 201.5" style="enable-background:new 0 0 201.7 201.5;" xml:space="preserve">
<style type="text/css">
	.st0{fill:#FFFFFF;}
</style>
<g>
	<polygon class="st0" points="83.9,106.1 100.9,106.1 100.9,106.1 100.9,106.1 117.9,106.1 100.9,65.2 	"/>
	<path class="st0" d="M100.9,0.8L100.9,0.8L100.9,0.8L7.8,34L22,157.1l78.9,43.7l0,0l0,0l78.9-43.7L193.9,34L100.9,0.8z M159,153.4
		h-21.7l0,0l-11.7-29.2h-24.7l0,0l0,0H76.2l-11.7,29.2l0,0H42.8l0,0l58.1-130.5l0,0l0,0l0,0l0,0L159,153.4L159,153.4z"/>
</g>
</svg>
