<?xml version="1.0" encoding="utf-8"?>
<!-- Generator: Adobe Illustrator 25.0.0, SVG Export Plug-In . SVG Version: 6.00 Build 0)  -->
<svg version="1.1" id="Logo" xmlns="http://www.w3.org/2000/svg" xmlns:xlink="http://www.w3.org/1999/xlink" x="0px" y="0px"
	 viewBox="0 0 201.7 201.5" style="enable-background:new 0 0 201.7 201.5;" xml:space="preserve">
<style type="text/css">
	.st0{fill:#FFFFFF;}
</style>
<g id="_Group_2">
	<g id="_Group_3">
		<path id="_Path_" class="st0" d="M154.6,107c0.2-15.4,8.2-29.5,21.3-37.6c-8.3-11.8-21.7-19.1-36.1-19.5
			c-15.2-1.6-29.9,9.1-37.7,9.1c-7.9,0-19.8-8.9-32.7-8.7C52.6,50.9,37.2,60.3,29,75c-17.5,30.3-4.4,74.8,12.3,99.3
			c8.4,12,18.2,25.4,31,24.9c12.6-0.5,17.2-8,32.4-8c15,0,19.4,8,32.5,7.7c13.5-0.2,22-12,30-24.2c6-8.5,10.7-18,13.7-28
			C165,140.1,154.6,124.4,154.6,107z"/>
		<path id="_Path_2" class="st0" d="M129.9,33.8c7.3-8.8,11-20.1,10.1-31.6c-11.2,1.2-21.6,6.5-29,15c-7.3,8.4-11.1,19.3-10.3,30.4
			C112,47.8,122.7,42.7,129.9,33.8z"/>
	</g>
</g>
</svg>
