<?xml version="1.0" encoding="utf-8"?>
<!-- Generator: Adobe Illustrator 25.0.0, SVG Export Plug-In . SVG Version: 6.00 Build 0)  -->
<svg version="1.1" id="Logo" xmlns="http://www.w3.org/2000/svg" xmlns:xlink="http://www.w3.org/1999/xlink" x="0px" y="0px"
	 viewBox="0 0 201.7 201.5" style="enable-background:new 0 0 201.7 201.5;" xml:space="preserve">
<style type="text/css">
	.st0{fill-opacity:0;}
	.st1{fill:#EA4C89;}
	.st2{fill-rule:evenodd;clip-rule:evenodd;fill:#C32361;}
</style>
<rect x="0.7" y="0.6" class="st0" width="200.3" height="200.3"/>
<g>
	<path class="st1" d="M15.2,100.9c0,21.9,8.4,42,21.9,57.1c2-3.3,25.4-42.2,69.5-56.4c1.1-0.3,2.3-0.7,3.4-1
		c-2.2-4.9-4.5-9.8-7-14.6C60.4,98.9,18.9,98.4,15.2,98.3C15.2,99.1,15.2,100,15.2,100.9z"/>
	<path class="st1" d="M157.5,36.9c-15.1-13.4-35-21.5-56.7-21.5c-7,0-13.7,0.8-20.1,2.3c2.4,3.3,17.9,24.3,31.9,50.1
		C143.1,56.3,156,39.1,157.5,36.9z"/>
	<path class="st1" d="M167,46.8c-1.8,2.4-16.2,20.9-47.7,33.7c2,4,3.9,8.3,5.6,12.4c0.7,1.5,1.2,3,1.8,4.5
		c28.5-3.6,56.7,2.2,59.5,2.7C186.1,79.9,178.9,61.3,167,46.8z"/>
	<path class="st1" d="M17.1,83.3c3.8,0,39.1,0.2,79.1-10.4C81.9,47.6,66.7,26.4,64.4,23.4C40.5,34.7,22.6,56.8,17.1,83.3z"/>
	<path class="st1" d="M131.9,110.7c11.2,30.7,15.8,55.7,16.6,60.9c19.2-12.9,32.9-33.5,36.6-57.3
		C182.2,113.5,158.7,106.5,131.9,110.7z"/>
	<path class="st1" d="M134.3,179.5c-1.3-7.5-6.2-33.7-18.3-64.9c-0.2,0.1-0.3,0.1-0.5,0.2c-48.2,16.8-65.6,50.3-67.1,53.4
		c14.4,11.3,32.7,18,52.5,18C112.7,186.4,124,184,134.3,179.5z"/>
</g>
<path class="st2" d="M100.8,0.6C45.5,0.6,0.7,45.5,0.7,100.8s44.9,100.2,100.2,100.2c55.2,0,100.2-44.9,100.2-100.2
	S156,0.6,100.8,0.6z M167,46.8c11.9,14.6,19.1,33.1,19.3,53.2c-2.8-0.5-31.1-6.3-59.5-2.7c-0.7-1.4-1.2-2.9-1.8-4.5
	c-1.7-4.1-3.7-8.4-5.6-12.4C150.8,67.6,165.1,49.2,167,46.8z M100.8,15.4c21.7,0,41.6,8.1,56.7,21.5c-1.5,2.2-14.4,19.4-44.9,30.9
	C98.7,42,83.1,20.9,80.7,17.6C87.1,16.1,93.9,15.4,100.8,15.4z M64.4,23.4c2.3,3,17.5,24.2,31.7,49.4c-40,10.6-75.3,10.4-79.1,10.4
	C22.6,56.8,40.5,34.7,64.4,23.4z M15.2,100.9c0-0.9,0-1.7,0-2.6c3.7,0.1,45.2,0.7,87.9-12.2c2.5,4.8,4.8,9.7,7,14.6
	c-1.1,0.3-2.3,0.7-3.4,1c-44.1,14.2-67.6,53.1-69.5,56.4C23.6,142.9,15.2,122.8,15.2,100.9z M100.8,186.4c-19.8,0-38-6.7-52.5-18
	c1.5-3.2,18.9-36.6,67.1-53.4c0.2-0.1,0.3-0.1,0.5-0.2c12.1,31.2,16.9,57.4,18.3,64.9C124,184,112.7,186.4,100.8,186.4z
	 M148.5,171.7c-0.9-5.2-5.4-30.2-16.6-60.9c26.8-4.2,50.3,2.7,53.2,3.7C181.4,138.2,167.8,158.8,148.5,171.7z"/>
</svg>
