<?xml version="1.0" encoding="utf-8"?>
<!-- Generator: Adobe Illustrator 25.0.0, SVG Export Plug-In . SVG Version: 6.00 Build 0)  -->
<svg version="1.1" id="Logo" xmlns="http://www.w3.org/2000/svg" xmlns:xlink="http://www.w3.org/1999/xlink" x="0px" y="0px"
	 viewBox="0 0 201.7 201.5" style="enable-background:new 0 0 201.7 201.5;" xml:space="preserve">
<style type="text/css">
	.st0{fill-rule:evenodd;clip-rule:evenodd;fill:#FFFFFF;}
	.st1{fill:#FFFFFF;}
</style>
<g>
	<path class="st0" d="M100.8,13.8c-53,0-96.1,43-96.1,96.1c0,42.5,27.6,78.6,65.8,91.3c4.8,0.9,6.6-2.1,6.6-4.7
		c0-2.3-0.1-9.8-0.1-17.9c-26.8,5.8-32.4-11.3-32.4-11.3c-4.4-11.2-10.7-14.1-10.7-14.1c-8.8-6,0.7-5.8,0.7-5.8
		c9.6,0.7,14.8,9.9,14.8,9.9c8.6,14.7,22.5,10.5,27.9,8c0.9-6.2,3.3-10.5,6.1-12.9c-21.5-2.3-43.9-10.6-43.9-47.4
		c0-10.5,3.7-19.1,9.9-25.8c-1-2.4-4.3-12.2,1-25.5c0,0,8.1-2.6,26.4,9.8c7.6-2.1,15.9-3.2,24-3.2c8.2,0,16.4,1.1,24.1,3.2
		c18.3-12.4,26.4-9.8,26.4-9.8c5.2,13.3,1.9,23,1,25.5c6.2,6.8,9.9,15.4,9.9,25.8c0,36.9-22.5,45.1-44,47.5c3.4,3,6.5,8.9,6.5,17.8
		c0,12.9-0.1,23.3-0.1,26.4c0,2.6,1.7,5.5,6.6,4.6c38.2-12.8,65.7-48.7,65.7-91.3C197.1,56.8,154,13.8,100.8,13.8z"/>
	<path class="st1" d="M41.2,151.9c-0.2,0.5-1,0.7-1.6,0.3c-0.7-0.3-1-1-0.9-1.4c0.2-0.5,1-0.7,1.6-0.3
		C41,150.8,41.4,151.4,41.2,151.9L41.2,151.9z"/>
	<path class="st1" d="M45.1,156.2c-0.5,0.4-1.3,0.2-2-0.5c-0.7-0.7-0.8-1.5-0.3-2c0.5-0.4,1.3-0.2,2,0.5
		C45.4,155,45.5,155.8,45.1,156.2L45.1,156.2z"/>
	<path class="st1" d="M48.9,161.8c-0.6,0.4-1.5,0-2.2-0.9c-0.6-0.9-0.6-1.9,0-2.3c0.6-0.4,1.5,0,2.2,0.8
		C49.4,160.3,49.4,161.4,48.9,161.8L48.9,161.8z"/>
	<path class="st1" d="M54,167.2c-0.6,0.6-1.6,0.4-2.5-0.4c-0.9-0.8-1-1.9-0.6-2.5c0.6-0.6,1.6-0.4,2.5,0.4
		C54.3,165.5,54.6,166.6,54,167.2L54,167.2z"/>
	<path class="st1" d="M61.2,170.2c-0.2,0.8-1.3,1-2.4,0.8c-1-0.3-1.8-1.2-1.6-2c0.2-0.8,1.3-1.1,2.4-0.8
		C60.7,168.6,61.5,169.5,61.2,170.2L61.2,170.2z"/>
	<path class="st1" d="M69.1,170.8c0,0.8-0.9,1.4-2,1.4c-1.1,0-2.1-0.6-2.1-1.4c0-0.8,0.9-1.4,2.1-1.4
		C68.1,169.4,69.1,170,69.1,170.8L69.1,170.8z"/>
	<path class="st1" d="M76.4,169.6c0.1,0.8-0.7,1.5-1.8,1.8c-1.1,0.2-2.2-0.3-2.3-1s0.7-1.6,1.8-1.8
		C75.2,168.3,76.2,168.8,76.4,169.6L76.4,169.6z"/>
</g>
</svg>
