<?xml version="1.0" encoding="utf-8"?>
<!-- Generator: Adobe Illustrator 25.0.0, SVG Export Plug-In . SVG Version: 6.00 Build 0)  -->
<svg version="1.1" id="Logo" xmlns="http://www.w3.org/2000/svg" xmlns:xlink="http://www.w3.org/1999/xlink" x="0px" y="0px"
	 viewBox="0 0 201.7 201.5" style="enable-background:new 0 0 201.7 201.5;" xml:space="preserve">
<style type="text/css">
	.st0{fill-rule:evenodd;clip-rule:evenodd;fill:#FFFFFF;}
	.st1{fill:#FFFFFF;}
</style>
<g>
	<path class="st0" d="M100.8,2.4C45.2,2.4,0,47.5,0,103.2c0,44.6,28.9,82.4,69,95.7c5,0.9,6.9-2.2,6.9-4.9c0-2.4-0.1-10.3-0.1-18.8
		c-28.1,6.1-34-11.9-34-11.9c-4.6-11.7-11.2-14.8-11.2-14.8c-9.2-6.3,0.7-6.1,0.7-6.1c10.1,0.7,15.5,10.4,15.5,10.4
		c9,15.4,23.6,11,29.3,8.4c0.9-6.5,3.5-11,6.4-13.5C60,145.3,36.5,136.6,36.5,98c0-11,3.9-20,10.4-27.1c-1-2.5-4.5-12.8,1-26.7
		c0,0,8.5-2.7,27.7,10.3c8-2.2,16.7-3.4,25.2-3.4c8.6,0,17.2,1.2,25.3,3.4c19.2-13,27.7-10.3,27.7-10.3c5.5,13.9,2,24.1,1,26.7
		C161.3,78,165.2,87,165.2,98c0,38.7-23.6,47.3-46.1,49.8c3.6,3.1,6.8,9.3,6.8,18.7c0,13.5-0.1,24.4-0.1,27.7c0,2.7,1.8,5.8,6.9,4.8
		c40.1-13.4,68.9-51.1,68.9-95.7C201.7,47.5,156.5,2.4,100.8,2.4z"/>
	<path class="st1" d="M38.2,147.2c-0.2,0.5-1,0.7-1.7,0.3c-0.7-0.3-1.1-1-0.9-1.5c0.2-0.5,1-0.7,1.7-0.3
		C38,146,38.5,146.7,38.2,147.2L38.2,147.2z M37,146.3"/>
	<path class="st1" d="M42.3,151.7c-0.5,0.4-1.4,0.2-2.1-0.5c-0.7-0.7-0.8-1.6-0.3-2.1c0.5-0.4,1.4-0.2,2.1,0.5
		C42.7,150.4,42.8,151.3,42.3,151.7L42.3,151.7z M41.3,150.7"/>
	<path class="st1" d="M46.3,157.6c-0.6,0.4-1.6,0-2.3-0.9c-0.6-0.9-0.6-2,0-2.4c0.6-0.4,1.6,0,2.3,0.8
		C46.9,156,46.9,157.1,46.3,157.6L46.3,157.6z M46.3,157.6"/>
	<path class="st1" d="M51.7,163.2c-0.6,0.6-1.7,0.4-2.6-0.4c-0.9-0.8-1.1-2-0.6-2.6c0.6-0.6,1.7-0.4,2.6,0.4
		C52,161.4,52.3,162.6,51.7,163.2L51.7,163.2z M51.7,163.2"/>
	<path class="st1" d="M59.2,166.4c-0.2,0.8-1.4,1.1-2.5,0.8c-1.1-0.3-1.9-1.3-1.7-2.1c0.2-0.8,1.4-1.2,2.5-0.8
		C58.7,164.7,59.5,165.6,59.2,166.4L59.2,166.4z M59.2,166.4"/>
	<path class="st1" d="M67.5,167c0,0.8-0.9,1.5-2.1,1.5c-1.2,0-2.2-0.6-2.2-1.5c0-0.8,0.9-1.5,2.2-1.5
		C66.5,165.5,67.5,166.2,67.5,167L67.5,167z M67.5,167"/>
	<path class="st1" d="M75.2,165.7c0.1,0.8-0.7,1.6-1.9,1.9c-1.2,0.2-2.3-0.3-2.4-1.1c-0.1-0.8,0.7-1.7,1.9-1.9
		C73.9,164.4,75,164.9,75.2,165.7L75.2,165.7z M75.2,165.7"/>
</g>
</svg>
