<?xml version="1.0" encoding="utf-8"?>
<!-- Generator: Adobe Illustrator 25.0.0, SVG Export Plug-In . SVG Version: 6.00 Build 0)  -->
<svg version="1.1" id="Logo" xmlns="http://www.w3.org/2000/svg" xmlns:xlink="http://www.w3.org/1999/xlink" x="0px" y="0px"
	 viewBox="0 0 201.7 201.5" style="enable-background:new 0 0 201.7 201.5;" xml:space="preserve">
<style type="text/css">
	.st0{fill-rule:evenodd;clip-rule:evenodd;fill:#FFFFFF;}
	.st1{fill:#FFFFFF;}
</style>
<g>
	<path class="st0" d="M100.8,23.1C50.4,23.1,9.4,64,9.4,114.5c0,40.4,26.2,74.7,62.6,86.8c4.5,0.8,6.3-2,6.3-4.4
		c0-2.2-0.1-9.3-0.1-17C52.7,185.3,47.4,169,47.4,169c-4.2-10.6-10.2-13.4-10.2-13.4c-8.3-5.7,0.6-5.5,0.6-5.5
		c9.2,0.6,14.1,9.4,14.1,9.4c8.2,14,21.4,10,26.6,7.6c0.8-5.9,3.2-10,5.8-12.2c-20.4-2.2-41.7-10.1-41.7-45.1
		c0-10,3.5-18.1,9.4-24.6c-0.9-2.3-4.1-11.6,0.9-24.2c0,0,7.7-2.4,25.1,9.3c7.3-2,15.1-3.1,22.9-3.1c7.8,0,15.6,1.1,22.9,3.1
		c17.4-11.8,25.1-9.3,25.1-9.3c5,12.6,1.8,21.9,0.9,24.2c5.9,6.4,9.4,14.6,9.4,24.6c0,35.1-21.4,42.9-41.8,45.2
		c3.3,2.8,6.2,8.4,6.2,17c0,12.2-0.1,22.1-0.1,25.1c0,2.4,1.6,5.3,6.3,4.4c36.4-12.2,62.5-46.3,62.5-86.8
		C192.3,64,151.4,23.1,100.8,23.1z"/>
	<path class="st1" d="M44.1,154.4c-0.2,0.5-0.9,0.6-1.5,0.3c-0.6-0.3-1-0.9-0.8-1.4c0.2-0.5,0.9-0.6,1.5-0.3
		C43.9,153.3,44.4,153.9,44.1,154.4L44.1,154.4z"/>
	<path class="st1" d="M47.8,158.4c-0.5,0.4-1.3,0.2-1.9-0.5c-0.6-0.6-0.7-1.5-0.3-1.9c0.5-0.4,1.3-0.2,1.9,0.5
		C48.2,157.3,48.3,158.1,47.8,158.4L47.8,158.4z"/>
	<path class="st1" d="M51.4,163.8c-0.5,0.4-1.5,0-2.1-0.8c-0.5-0.8-0.5-1.8,0-2.2s1.5,0,2.1,0.7C52,162.3,52,163.3,51.4,163.8
		L51.4,163.8z"/>
	<path class="st1" d="M56.3,168.9c-0.5,0.5-1.5,0.4-2.4-0.4c-0.8-0.7-1-1.8-0.5-2.4c0.5-0.5,1.5-0.4,2.4,0.4S56.9,168.3,56.3,168.9
		L56.3,168.9z"/>
	<path class="st1" d="M63.1,171.8c-0.2,0.7-1.3,1-2.3,0.7c-1-0.3-1.7-1.2-1.5-1.9c0.2-0.7,1.3-1.1,2.3-0.7
		C62.7,170.2,63.4,171,63.1,171.8L63.1,171.8z"/>
	<path class="st1" d="M70.7,172.3c0,0.7-0.8,1.4-1.9,1.4s-2-0.5-2-1.4c0-0.7,0.8-1.4,2-1.4C69.7,170.9,70.7,171.6,70.7,172.3
		L70.7,172.3z"/>
	<path class="st1" d="M77.6,171.1c0.1,0.7-0.6,1.5-1.7,1.7c-1.1,0.2-2.1-0.3-2.2-1c-0.1-0.7,0.6-1.5,1.7-1.7
		C76.5,170,77.5,170.4,77.6,171.1L77.6,171.1z"/>
</g>
</svg>
