<?xml version="1.0" encoding="utf-8"?>
<!-- Generator: Adobe Illustrator 25.0.0, SVG Export Plug-In . SVG Version: 6.00 Build 0)  -->
<svg version="1.1" id="Logo" xmlns="http://www.w3.org/2000/svg" xmlns:xlink="http://www.w3.org/1999/xlink" x="0px" y="0px"
	 viewBox="0 0 201.7 201.5" style="enable-background:new 0 0 201.7 201.5;" xml:space="preserve">
<style type="text/css">
	.st0{fill:#FFFFFF;}
</style>
<path class="st0" d="M100.8,0.1c28.6,0,57.2,0.1,85.9-0.1c7.6,0,13.8,5.4,14.8,12.1c0.1,0.7,0.2,1.5,0.2,2.2c0,57.6,0,115.2,0,172.8
	c0,7.6-6.1,14-13.7,14.3c-0.5,0-1,0-1.5,0c-57.1,0-114.2,0-171.4,0c-7.2,0-12.6-3.8-14.5-10.3c-0.4-1.4-0.6-2.8-0.6-4.3
	C0,129.5,0,72.1,0,14.7C0,6.5,6.2,0.2,14.4,0.1c6.9-0.1,13.8,0,20.8,0C57,0.1,78.9,0.1,100.8,0.1z M107.5,88.5c0-4-0.1-7.5,0-10.9
	c0-1.7-0.4-2.3-2.2-2.3c-8.2,0.1-16.5,0.1-24.7,0c-2,0-2.4,0.6-2.4,2.5c0.1,30.6,0.1,61.2,0,91.9c0,1.9,0.5,2.5,2.4,2.5
	c8.6-0.1,17.1-0.1,25.7,0c1.9,0,2.4-0.6,2.4-2.5c-0.1-15.4-0.1-30.8,0-46.2c0-3.2,0.2-6.4,0.8-9.5c1.2-6.5,4.1-11.8,11.1-13.5
	c2.2-0.5,4.5-0.6,6.7-0.6c7,0.1,11.5,3.4,13.1,10.2c0.9,3.9,1.3,8.1,1.3,12.1c0.1,15.8,0.1,31.7,0,47.5c0,1.8,0.5,2.6,2.4,2.5
	c8.6-0.1,17.1-0.1,25.7,0c1.8,0,2.3-0.6,2.3-2.4c-0.1-17-0.1-34.1,0-51.1c0-7-0.3-13.9-1.9-20.8c-2.2-9.3-6.5-17.3-15.7-21.4
	c-9.1-4.1-18.7-4.9-28.3-2.4C118.3,76.3,112.3,81.1,107.5,88.5z M60,123.6c0-15.3,0-30.7,0-46c0-1.7-0.5-2.3-2.2-2.3
	c-8.7,0.1-17.4,0.1-26,0c-1.7,0-2.2,0.4-2.2,2.2c0.1,30.8,0.1,61.6,0,92.4c0,1.8,0.7,2.2,2.3,2.2c8.6-0.1,17.1,0,25.7,0
	c2.5,0,2.5,0,2.5-2.5C60,154.3,60,138.9,60,123.6z M44.8,62.4c9.7,0,17.5-7.7,17.5-17.4c0-9.8-7.8-17.6-17.5-17.6
	c-9.8,0-17.5,7.8-17.5,17.6C27.3,54.8,35,62.4,44.8,62.4z"/>
</svg>
